<svg width="32" height="19" viewBox="0 0 32 19" fill="none" xmlns="http://www.w3.org/2000/svg">
<path fill-rule="evenodd" clip-rule="evenodd" d="M16 16.5411C16.9937 15.6482 17.7869 14.5606 18.3288 13.348C18.8708 12.1355 19.1495 10.8248 19.147 9.49992C19.1495 8.17507 18.8708 6.86433 18.3289 5.65178C17.7869 4.43923 16.9937 3.35164 16 2.45875C14.3009 0.931004 12.0469 0 9.57342 0C4.28632 0 0 4.2532 0 9.49992C0 14.7465 4.28632 18.9998 9.57342 18.9998C12.0469 18.9998 14.301 18.0688 16 16.5411Z" fill="#3A9BD9"/>
<path fill-rule="evenodd" clip-rule="evenodd" d="M22.4266 0C19.9531 0 17.6988 0.931004 16 2.45875C15.6535 2.77057 15.3305 3.10672 15.0334 3.46456H16.9659C17.2312 3.78396 17.4751 4.11999 17.6962 4.47054H14.3036C14.0994 4.7947 13.9151 5.13063 13.7516 5.47652H18.2473C18.4021 5.80389 18.5377 6.13971 18.6535 6.48232H13.3463C13.235 6.81232 13.1422 7.1481 13.0683 7.48813H18.9317C19.0752 8.14938 19.1474 8.82372 19.1472 9.49992C19.1472 10.5546 18.9734 11.5693 18.6537 12.5173H13.3463C13.4617 12.86 13.5971 13.1959 13.7516 13.5233H18.2473C18.0842 13.8692 17.9001 14.2052 17.6961 14.5293H14.3036C14.5245 14.8798 14.7682 15.2158 15.0333 15.5353H16.9659C16.6692 15.8933 16.3464 16.2295 16 16.5412C17.6988 18.069 19.9531 19 22.4266 19C27.7135 19 32 14.7466 32 9.50008C32 4.2532 27.7135 0 22.4266 0Z" fill="#CC2131"/>
<path fill-rule="evenodd" clip-rule="evenodd" d="M30.7252 14.7955C30.7252 14.626 30.8636 14.4885 31.0346 14.4885C31.2053 14.4885 31.3437 14.626 31.3437 14.7955C31.3437 14.9646 31.2053 15.1021 31.0346 15.1021C30.9523 15.1019 30.8735 15.0694 30.8155 15.0119C30.7575 14.9544 30.725 14.8766 30.7252 14.7955ZM31.0345 15.0283C31.1641 15.0283 31.2693 14.9244 31.2693 14.7953C31.2693 14.6663 31.1641 14.562 31.0345 14.562C30.9045 14.562 30.7993 14.6663 30.7993 14.7953C30.7993 14.9244 30.9046 15.0283 31.0345 15.0283ZM30.9927 14.9299H30.9293V14.66H31.0442C31.068 14.66 31.0923 14.6607 31.1133 14.6738C31.1242 14.6814 31.1331 14.6916 31.1392 14.7033C31.1452 14.7151 31.1483 14.7281 31.148 14.7412C31.148 14.7716 31.1301 14.8002 31.101 14.811L31.1511 14.9298H31.0806L31.0393 14.8231H30.9929L30.9927 14.9299L30.9929 14.7773H31.028C31.0406 14.7773 31.055 14.778 31.0665 14.7717C31.0715 14.7683 31.0757 14.7637 31.0785 14.7582C31.0813 14.7528 31.0827 14.7468 31.0825 14.7407C31.0823 14.7353 31.0808 14.73 31.0781 14.7253C31.0755 14.7205 31.0717 14.7165 31.0671 14.7134C31.0562 14.7069 31.0384 14.7086 31.0264 14.7086H30.9931V14.9299H30.9927Z" fill="#CC2131"/>
<path fill-rule="evenodd" clip-rule="evenodd" d="M28.7008 11.5589C28.7008 11.3894 28.8391 11.2519 29.0098 11.2519C29.1805 11.2519 29.3189 11.3894 29.3189 11.5589C29.3189 11.7284 29.1805 11.8655 29.0098 11.8655C28.8391 11.8655 28.7008 11.7282 28.7008 11.5589ZM29.0097 11.7917C29.1393 11.7917 29.2445 11.6874 29.2445 11.5587C29.2445 11.4296 29.1393 11.3254 29.0097 11.3254C28.8797 11.3254 28.7748 11.4296 28.7748 11.5587C28.7748 11.6874 28.8798 11.7917 29.0097 11.7917ZM28.9679 11.6933H28.9045V11.4237H29.0194C29.0432 11.4237 29.0678 11.4241 29.0885 11.4376C29.0994 11.4451 29.1083 11.4551 29.1144 11.4668C29.1204 11.4785 29.1235 11.4915 29.1232 11.5046C29.1232 11.5353 29.1055 11.5636 29.0762 11.5744L29.1263 11.6931H29.0562L29.0145 11.5865H28.9681L28.9679 11.6933L28.9681 11.5407H29.0032C29.0162 11.5407 29.0305 11.5417 29.0417 11.5354C29.0467 11.532 29.0508 11.5273 29.0536 11.5219C29.0564 11.5165 29.0578 11.5105 29.0577 11.5044C29.0576 11.499 29.0562 11.4936 29.0535 11.4888C29.0508 11.484 29.047 11.4799 29.0423 11.4768C29.0314 11.4706 29.0136 11.4719 29.002 11.4719H28.9683V11.6933H28.9679ZM8.3775 11.8655H7.18602L7.89413 8.16304L6.26376 11.8655H5.1773L4.97872 8.18427L4.26838 11.8655H3.18687L4.11102 7.04924H5.97025L6.0686 10.0309L7.37947 7.04924H9.31687L8.3775 11.8655ZM21.6933 11.8175C21.3673 11.9063 21.1125 11.9445 20.8371 11.9445C20.2275 11.9445 19.8946 11.6411 19.8946 11.0844C19.8946 10.9743 19.907 10.857 19.9297 10.733L20.0022 10.35L20.058 10.04L20.6103 7.04907H21.7953L21.6235 7.94857H22.2316L22.0683 8.9008H21.4576L21.1436 10.535C21.132 10.5884 21.1251 10.6427 21.1232 10.6973C21.1232 10.8996 21.2466 10.9876 21.5298 10.9876C21.6654 10.9876 21.7706 10.9754 21.8512 10.951L21.6933 11.8175ZM25.1734 7.98075C25.0735 7.94166 25.05 7.94166 25.0384 7.93846C24.9753 7.92465 24.9416 7.91656 24.9358 7.91555C24.8962 7.90873 24.8561 7.90546 24.8159 7.90578C24.4247 7.90578 24.1427 8.07864 23.778 8.54178L23.8832 7.94823H22.8041L22.0778 11.8653H23.2702C23.6967 9.46975 23.8794 9.05024 24.4514 9.05024C24.4945 9.05024 24.5443 9.05361 24.6021 9.06018L24.7413 9.08832L25.1734 7.98075ZM16.97 9.18604C16.97 9.68085 17.251 10.0217 17.888 10.2778C18.3761 10.4745 18.4516 10.5322 18.4516 10.7101C18.4516 10.9539 18.2364 11.0639 17.7597 11.0639C17.3998 11.0639 17.0654 11.0159 16.6794 10.9089L16.514 11.8124L16.5674 11.8214L16.7882 11.8615C16.8593 11.8736 16.9642 11.8852 17.1032 11.8957C17.3899 11.9177 17.6117 11.9282 17.7681 11.9282C19.0399 11.9282 19.6275 11.5146 19.6275 10.6211C19.6275 10.0835 19.3819 9.76829 18.7779 9.53091C18.2725 9.33261 18.214 9.28864 18.214 9.10584C18.214 8.89474 18.4144 8.78624 18.8039 8.78624C19.0408 8.78624 19.3637 8.80831 19.6701 8.84504L19.8418 7.93829C19.5298 7.89617 19.0564 7.86164 18.7812 7.86164C17.4327 7.86181 16.9659 8.46361 16.97 9.18604ZM12.2509 11.8655H11.2608L11.2839 11.4595C10.9823 11.7809 10.5804 11.9332 10.034 11.9332C9.38836 11.9332 8.94519 11.4969 8.94519 10.8634C8.94519 9.90914 9.71505 9.353 11.0382 9.353C11.1739 9.353 11.3461 9.36361 11.5237 9.38315C11.5606 9.25444 11.5707 9.19884 11.5707 9.12875C11.5707 8.86947 11.3629 8.77242 10.8065 8.77242C10.4663 8.77242 10.0818 8.81488 9.81631 8.8816L9.65125 8.92321L9.54435 8.94848L9.70958 8.06785C10.3036 7.9169 10.6956 7.85978 11.1361 7.85978C12.1601 7.85978 12.7013 8.25773 12.7013 9.0088C12.7013 9.20204 12.6833 9.34878 12.6045 9.7848L12.3554 11.1744L12.3135 11.4237L12.2831 11.6229L12.2627 11.7592L12.2509 11.8655ZM11.3817 10.1204C11.2933 10.1096 11.2044 10.1042 11.1154 10.1042C10.4401 10.1042 10.098 10.3046 10.098 10.7001C10.098 10.9439 10.265 11.0996 10.5255 11.0996C11.0112 11.0998 11.3612 10.6996 11.3817 10.1204ZM16.1598 11.7809C15.7618 11.8873 15.3512 11.9407 14.9389 11.9398C13.6068 11.9388 12.9125 11.337 12.9125 10.1849C12.9125 8.84032 13.7958 7.85035 14.9948 7.85035C15.9757 7.85035 16.6021 8.40481 16.6021 9.27415C16.6021 9.56275 16.5593 9.84411 16.4558 10.2412H14.0867C14.0795 10.2818 14.0756 10.323 14.0753 10.3642C14.0753 10.8182 14.4285 11.0499 15.1205 11.0499C15.5461 11.0499 15.9307 10.9732 16.3578 10.8021L16.1598 11.7809ZM15.5252 9.45021C15.5317 9.36866 15.5351 9.30195 15.5351 9.25039C15.5351 8.93231 15.3263 8.74564 14.9715 8.74564C14.5925 8.74564 14.3214 8.99599 14.2114 9.44785L15.5252 9.45021ZM28.8771 10.0896C28.6987 11.3926 27.7818 11.9705 26.5627 11.9705C25.2147 11.9705 24.6703 11.1591 24.6703 10.1649C24.6703 8.77664 25.5924 7.83603 27.0165 7.83603C28.2526 7.83603 28.9089 8.60951 28.9089 9.60386C28.9089 9.84579 28.9086 9.8618 28.8771 10.0896ZM27.6501 9.58836C27.6501 9.17862 27.4824 8.7918 26.9939 8.7918C26.3859 8.7918 26.0091 9.50496 26.0091 10.1346C26.0091 10.6656 26.2673 11.0224 26.6932 11.0149C26.9515 11.0149 27.5023 10.6658 27.6112 10.0561C27.6367 9.91386 27.6501 9.75785 27.6501 9.58836Z" fill="white"/>
</svg>
