<svg width="31" height="19" viewBox="0 0 31 19" fill="none" xmlns="http://www.w3.org/2000/svg">
<path fill-rule="evenodd" clip-rule="evenodd" d="M15.508 16.5373C17.1422 18.0702 19.3368 19 21.724 19C26.8506 19 31 14.7434 31 9.50806C31 4.25679 26.8506 0 21.724 0C19.3368 0 17.1422 0.929596 15.508 2.46267C13.6336 4.20766 12.4479 6.71927 12.4479 9.50806C12.4481 12.2968 13.6336 14.8087 15.508 16.5373Z" fill="#E9B040"/>
<path fill-rule="evenodd" clip-rule="evenodd" d="M29.7668 14.7921C29.7668 14.629 29.8951 14.4987 30.0551 14.4987C30.2312 14.4987 30.3593 14.6292 30.3593 14.7921C30.3593 14.9718 30.2311 15.1021 30.0551 15.1021C29.8951 15.1021 29.7668 14.9718 29.7668 14.7921ZM30.0551 15.0371C30.1834 15.0371 30.2952 14.9227 30.2952 14.7923C30.2952 14.662 30.1832 14.5641 30.0551 14.5641C29.9428 14.5641 29.8309 14.662 29.8309 14.7923C29.8309 14.9227 29.9429 15.0371 30.0551 15.0371ZM30.0231 14.9392H29.959V14.6618H30.071C30.0872 14.6618 30.1192 14.6618 30.1351 14.6783C30.1671 14.6944 30.1671 14.711 30.1671 14.7436C30.1671 14.7762 30.1513 14.8088 30.1192 14.8088L30.1834 14.9394H30.103L30.071 14.825H30.0231V14.9392V14.776H30.0872C30.103 14.776 30.103 14.7595 30.103 14.7434C30.103 14.7269 30.103 14.7269 30.0872 14.7108H30.0231V14.9392Z" fill="#E9B040"/>
<path fill-rule="evenodd" clip-rule="evenodd" d="M18.504 8.49708C18.4719 8.15465 18.4078 7.82853 18.3437 7.48591H12.6723C12.7364 7.14348 12.8326 6.81736 12.9286 6.49105H18.0714C17.9598 6.14772 17.8315 5.81025 17.687 5.47988H13.3292C13.4895 5.13442 13.666 4.79698 13.858 4.4687H17.1424C16.9311 4.12039 16.6955 3.78792 16.4376 3.47385H14.563C14.8529 3.11336 15.1689 2.77536 15.5082 2.46267C13.8581 0.945912 11.6792 0 9.27603 0C4.1654 0 0 4.25679 0 9.50806C0 14.7434 4.1654 19 9.27603 19C11.6792 19 13.858 18.0702 15.5082 16.5373C15.8423 16.2301 16.153 15.8975 16.4376 15.5423H14.563C14.3065 15.2162 14.0823 14.89 13.858 14.5311H17.1424C17.3489 14.2086 17.531 13.8706 17.6872 13.5199H13.3292C13.185 13.1938 13.0409 12.8677 12.9286 12.5249H18.0714C18.1834 12.1988 18.2638 11.8565 18.3435 11.5137C18.4076 11.1876 18.4717 10.8454 18.5038 10.5025C18.5363 10.1719 18.5524 9.83978 18.5521 9.50749C18.5521 9.16563 18.536 8.8232 18.504 8.49708Z" fill="#CC2131"/>
<path fill-rule="evenodd" clip-rule="evenodd" d="M29.7668 11.7099C29.7668 11.5306 29.8951 11.4003 30.0551 11.4003C30.2312 11.4003 30.3593 11.5308 30.3593 11.7099C30.3593 11.873 30.2311 12.0199 30.0551 12.0199C29.8951 12.0199 29.7668 11.8728 29.7668 11.7099ZM30.0551 11.9381C30.1834 11.9381 30.2952 11.8402 30.2952 11.7099C30.2952 11.5795 30.1832 11.4817 30.0551 11.4817C29.9428 11.4817 29.8309 11.5795 29.8309 11.7099C29.8309 11.8402 29.9429 11.9381 30.0551 11.9381ZM30.0231 11.8402H29.959V11.5794H30.1351C30.1671 11.5959 30.1671 11.6285 30.1671 11.6611C30.1671 11.6772 30.1513 11.7099 30.1192 11.7264L30.1834 11.8404H30.103L30.071 11.7425H30.0231V11.8402V11.6936H30.0551C30.071 11.6936 30.0872 11.6936 30.0872 11.6771C30.103 11.6771 30.103 11.6609 30.103 11.6444C30.103 11.6444 30.103 11.6283 30.0872 11.6283C30.0872 11.6118 30.071 11.6283 30.0551 11.6283H30.0231V11.8402Z" fill="white"/>
<path fill-rule="evenodd" clip-rule="evenodd" d="M12.352 12.248C12.0476 12.3294 11.8232 12.3786 11.599 12.3786C11.1184 12.3786 10.8299 12.0686 10.8299 11.514C10.8299 11.4 10.846 11.2858 10.862 11.1553L10.9261 10.7804L10.9742 10.4704L11.4067 7.79585H12.368L12.2558 8.38302H12.8646L12.7204 9.36156H12.1115L11.8553 10.9597C11.8393 11.0415 11.8393 11.0902 11.8393 11.1229C11.8393 11.335 11.9354 11.4163 12.1757 11.4163C12.2878 11.4163 12.3838 11.4002 12.48 11.3837L12.352 12.248ZM15.4601 12.2154C15.1077 12.3133 14.7873 12.3621 14.4347 12.3621C13.3453 12.3621 12.7204 11.7749 12.7204 10.6173C12.7204 9.26347 13.4575 8.28493 14.4826 8.28493C15.2997 8.28493 15.8284 8.83947 15.8284 9.70361C15.8284 9.99748 15.7963 10.2746 15.7164 10.666H13.7137C13.6977 10.7313 13.6977 10.7639 13.6977 10.7966C13.6977 11.2532 14.002 11.4814 14.5788 11.4814C14.9472 11.4814 15.2676 11.4 15.6202 11.2371L15.4601 12.2154ZM14.8673 9.88327V9.68748C14.8673 9.36137 14.691 9.1819 14.3867 9.1819C14.0661 9.1819 13.8419 9.42644 13.7458 9.88308L14.8673 9.88327ZM4.66187 12.2968H3.66856L4.24535 8.59493L2.94771 12.2968H2.25891L2.17877 8.61124L1.56992 12.2968H0.592636L1.3776 7.48586H2.83551L2.86757 10.4543L3.84486 7.48586H5.44702L4.66187 12.2968ZM7.08124 10.552C6.98508 10.5355 6.95302 10.5355 6.88891 10.5355C6.31212 10.5355 6.02381 10.7637 6.02381 11.1227C6.02381 11.3674 6.16806 11.5306 6.39225 11.5306C6.87288 11.5306 7.06502 11.1227 7.08124 10.552ZM7.88223 12.2968H7.01713L7.03316 11.8893C6.80877 12.1989 6.50445 12.3621 5.97573 12.3621C5.4951 12.3621 5.07858 11.9219 5.07858 11.2858C5.07858 11.1065 5.11064 10.9436 5.15872 10.7804C5.3188 10.1768 5.91162 9.80188 6.8248 9.78538C6.93699 9.78538 7.1131 9.78538 7.27338 9.80188C7.30524 9.67136 7.30524 9.62222 7.30524 9.54084C7.30524 9.27979 7.09708 9.19821 6.63247 9.19821C6.34417 9.19821 6.02363 9.24716 5.79943 9.32874L5.65519 9.36137L5.59108 9.37749L5.73532 8.49684C6.19993 8.35 6.53631 8.28493 6.90494 8.28493C7.77003 8.28493 8.23464 8.69263 8.23464 9.44275C8.23464 9.63854 8.25067 9.78538 8.18656 10.2094L7.96236 11.6119L7.93031 11.8567L7.91428 12.0525L7.89825 12.183L7.88223 12.2968ZM20.2985 8.41546C20.5868 8.41546 20.8432 8.49703 21.1956 8.67631L21.3717 7.63251C21.2756 7.58356 21.2435 7.58356 21.1155 7.53461L20.7152 7.42041C20.587 7.38777 20.4269 7.37146 20.2504 7.37146C19.7535 7.37146 19.4652 7.38777 19.1611 7.56724C19.0008 7.68145 18.7925 7.82829 18.5681 8.08915L18.4399 8.05652L17.4145 8.79033L17.4628 8.38263H16.4052L15.7807 12.2966H16.7902L17.1584 10.1931C17.1584 10.1931 17.3029 9.8992 17.3668 9.80169C17.5591 9.55696 17.7192 9.55696 17.9274 9.55696H18.0077C17.9741 9.80551 17.9579 10.0562 17.9594 10.3071C17.9594 11.5791 18.6643 12.3784 19.7537 12.3784C20.0262 12.3784 20.2668 12.3457 20.635 12.2479L20.8115 11.139C20.4912 11.3183 20.2027 11.3998 19.9623 11.3998C19.3696 11.3998 19.0169 10.9432 19.0169 10.2257C19.0165 9.16558 19.5454 8.41546 20.2985 8.41546ZM28.8052 7.48586L28.5812 8.85578C28.3408 8.48072 28.0523 8.30125 27.6678 8.30125C27.1389 8.30125 26.6425 8.61105 26.3379 9.19821V9.18209L25.6972 8.79052L25.7613 8.38282H24.6879L24.079 12.2968H25.0723L25.4089 10.1933C25.4089 10.1933 25.6652 9.89939 25.7293 9.80188C25.8896 9.6061 26.0496 9.57328 26.1779 9.55715C26.0659 9.88327 26.0017 10.2746 26.0017 10.7152C26.0017 11.6937 26.4982 12.3459 27.2351 12.3459C27.6037 12.3459 27.892 12.2154 28.1643 11.9054L28.1164 12.2968H29.0618L29.8308 7.48586H28.8052ZM27.5718 11.3674C27.2353 11.3674 27.0592 11.1065 27.0592 10.6008C27.0592 9.83413 27.3795 9.27979 27.8439 9.27979C28.1963 9.27979 28.3728 9.55715 28.3728 10.0464C28.3728 10.8292 28.0525 11.3674 27.5718 11.3674ZM22.942 10.552C22.8459 10.5355 22.8138 10.5355 22.7497 10.5355C22.1725 10.5355 21.8842 10.7637 21.8842 11.1227C21.8842 11.3674 22.0287 11.5306 22.2529 11.5306C22.7335 11.5306 22.9258 11.1227 22.942 10.552ZM23.743 12.2968H22.8617L22.8938 11.8893C22.6696 12.1989 22.3649 12.3621 21.8365 12.3621C21.3397 12.3621 20.9073 11.9381 20.9073 11.2858C20.9073 10.3564 21.5959 9.78557 22.6854 9.78557C22.7978 9.78557 22.9737 9.78557 23.1181 9.80208C23.1502 9.67155 23.1664 9.62241 23.1664 9.54103C23.1664 9.27998 22.9581 9.1984 22.4774 9.1984C22.205 9.1984 21.8686 9.24735 21.6444 9.32893L21.5162 9.36156L21.4521 9.37768L21.5961 8.49703C22.0609 8.35019 22.3975 8.28512 22.7657 8.28512C23.6308 8.28512 24.0794 8.69282 24.0794 9.44294C24.0794 9.63873 24.1115 9.78557 24.0315 10.2096L23.8232 11.6121L23.7911 11.8569L23.7591 12.0526L23.7432 12.1832V12.2968H23.743ZM9.98086 9.21453C10.1732 9.21453 10.4455 9.23084 10.734 9.27979L10.8782 8.36651C10.5897 8.33388 10.2052 8.28493 9.98086 8.28493C8.85951 8.28493 8.49107 8.90473 8.49107 9.62222C8.49107 10.0954 8.69924 10.4376 9.24398 10.6985C9.64447 10.8943 9.70858 10.9267 9.70858 11.1064C9.70858 11.3507 9.50042 11.4977 9.11576 11.4977C8.81143 11.4977 8.52294 11.4486 8.20258 11.3346L8.09039 12.2313L8.10623 12.2479L8.29856 12.2805C8.36267 12.2966 8.4428 12.3131 8.55499 12.3292C8.79522 12.3457 9.00357 12.3619 9.13179 12.3619C10.2533 12.3619 10.7179 11.9217 10.7179 11.0572C10.7179 10.5192 10.4615 10.1931 9.96483 9.96485C9.53228 9.76887 9.4842 9.73662 9.4842 9.55696C9.4842 9.37768 9.67653 9.21453 9.98086 9.21453Z" fill="#1B3771"/>
<path fill-rule="evenodd" clip-rule="evenodd" d="M21.6442 7.32279L21.4677 8.36659C21.1153 8.18712 20.8589 8.10574 20.5706 8.10574C19.8175 8.10574 19.2889 8.85586 19.2889 9.91598C19.2889 10.65 19.6414 11.0901 20.2344 11.0901C20.4744 11.0901 20.7629 11.0087 21.0832 10.8458L20.9071 11.9381C20.5385 12.036 20.2983 12.0852 20.0258 12.0852C18.9365 12.0852 18.2636 11.2859 18.2636 9.99775C18.2636 8.28521 19.1928 7.07825 20.5225 7.07825C20.6986 7.07825 20.8587 7.09456 20.9869 7.12719L21.3876 7.22509C21.516 7.27403 21.548 7.29035 21.6442 7.32279ZM18.4078 8.04047H18.3117C17.9755 8.04047 17.7831 8.20363 17.4786 8.67639L17.5748 8.07291H16.6614L16.0369 11.9871H17.0464C17.4147 9.58967 17.5109 9.18198 17.9915 9.18198H18.0556C18.1518 8.70902 18.2798 8.3664 18.4401 8.0566L18.4078 8.04047ZM12.6084 11.9381C12.3361 12.036 12.1117 12.0687 11.8875 12.0687C11.3749 12.0687 11.0864 11.7752 11.0864 11.2045C11.0864 11.1066 11.1024 10.9763 11.1184 10.8619L11.1825 10.4705L11.2306 10.1609L11.6632 7.48594H12.6565L12.5443 8.0731H13.057L12.9287 9.03533H12.4161L12.1438 10.6663C12.1278 10.7316 12.1278 10.7807 12.1278 10.8295C12.1278 11.0252 12.2239 11.1068 12.4641 11.1068C12.5763 11.1068 12.6723 11.1068 12.7364 11.0742L12.6084 11.9381ZM8.74732 9.3125C8.74732 9.80197 8.97152 10.1442 9.50023 10.4053C9.91675 10.601 9.98086 10.6661 9.98086 10.8293C9.98086 11.074 9.80456 11.188 9.40406 11.188C9.09973 11.188 8.82727 11.1393 8.50691 11.0414L8.36267 11.9381L8.41075 11.9546L8.58705 11.9873C8.65097 12.0034 8.7313 12.0199 8.85933 12.0199C9.08352 12.0525 9.27585 12.0525 9.40406 12.0525C10.4613 12.0525 10.9581 11.6446 10.9581 10.7479C10.9581 10.2095 10.75 9.89947 10.2533 9.65513C9.82078 9.45934 9.77269 9.41059 9.77269 9.23112C9.77269 9.01921 9.94899 8.92132 10.2694 8.92132C10.4617 8.92132 10.734 8.93763 10.9904 8.97026L11.1344 8.0733C10.8782 8.02435 10.4777 7.99172 10.2533 7.99172C9.13179 7.99153 8.7313 8.59501 8.74732 9.3125ZM29.3183 11.9873H28.3728L28.4211 11.612C28.1486 11.9055 27.8601 12.036 27.4915 12.036C26.7546 12.036 26.274 11.4003 26.274 10.4218C26.274 9.11691 27.0271 8.00784 27.908 8.00784C28.3087 8.00784 28.597 8.18731 28.8697 8.54606L29.0939 7.17614H30.0872L29.3183 11.9873ZM27.8441 11.074C28.3089 11.074 28.6293 10.5195 28.6293 9.75283C28.6293 9.24724 28.4528 8.98619 28.1004 8.98619C27.6518 8.98619 27.3156 9.52441 27.3156 10.291C27.3156 10.8131 27.4917 11.074 27.8441 11.074ZM15.6843 11.9055C15.3317 12.0199 15.0114 12.0687 14.6429 12.0687C13.5214 12.0687 12.9446 11.4654 12.9446 10.3074C12.9446 8.97007 13.6817 7.97521 14.691 7.97521C15.524 7.97521 16.0526 8.52974 16.0526 9.39408C16.0526 9.68776 16.0205 9.96512 15.9243 10.3726H13.9381C13.9221 10.4218 13.9221 10.4544 13.9221 10.487C13.9221 10.9437 14.2266 11.1719 14.8032 11.1719C15.1716 11.1719 15.492 11.1066 15.8446 10.9272L15.6843 11.9055ZM15.1235 9.57336V9.37776C15.1235 9.05165 14.9472 8.87218 14.6429 8.87218C14.3226 8.87218 14.0982 9.11691 14.002 9.57336H15.1235ZM4.91831 11.9873H3.92499L4.50179 8.28501L3.20414 11.9873H2.51516L2.43502 8.31764L1.82636 11.9873H0.897156L1.68212 7.17614H3.12401L3.17209 10.1607L4.13316 7.17614H5.70327L4.91831 11.9873ZM7.4016 10.2421C7.30543 10.2421 7.25735 10.226 7.17721 10.226C6.61645 10.226 6.32815 10.4379 6.32815 10.8293C6.32815 11.074 6.45636 11.2206 6.68056 11.2206C7.09708 11.2206 7.38557 10.8293 7.4016 10.2421ZM8.13847 11.9873H7.30524L7.32127 11.5794C7.06483 11.9055 6.72845 12.0525 6.26385 12.0525C5.71911 12.0525 5.35067 11.6285 5.35067 10.9924C5.35067 10.0304 5.99138 9.47585 7.11292 9.47585C7.22511 9.47585 7.36935 9.49216 7.52944 9.50829C7.56149 9.37796 7.56149 9.32901 7.56149 9.26375C7.56149 9.00289 7.38519 8.905 6.92059 8.905C6.63229 8.905 6.31174 8.93763 6.08755 9.00289L5.9433 9.05184L5.84714 9.06815L5.99138 8.1875C6.48804 8.04067 6.82443 7.99172 7.19305 7.99172C8.05815 7.99172 8.52275 8.3831 8.52275 9.13322C8.52275 9.32901 8.50673 9.47585 8.44262 9.91617L8.21823 11.3026L8.18618 11.5469L8.17015 11.7427L8.15412 11.8898L8.13847 11.9873ZM23.2624 10.2421C23.15 10.2421 23.1021 10.226 23.0382 10.226C22.4614 10.226 22.1727 10.4379 22.1727 10.8293C22.1727 11.074 22.3172 11.2206 22.5414 11.2206C22.942 11.2206 23.2462 10.8293 23.2624 10.2421ZM23.9993 11.9873H23.1662L23.1821 11.5794C22.9258 11.9055 22.5894 12.0525 22.1248 12.0525C21.5801 12.0525 21.2115 11.6285 21.2115 10.9924C21.2115 10.0304 21.8522 9.47585 22.9737 9.47585C23.0861 9.47585 23.2303 9.49216 23.3744 9.50829C23.4065 9.37796 23.4227 9.32901 23.4227 9.26375C23.4227 9.00289 23.2462 8.905 22.7819 8.905C22.4933 8.905 22.1571 8.93763 21.9327 9.00289L21.8045 9.05184L21.7083 9.06815L21.8524 8.1875C22.3492 8.04067 22.6854 7.99172 23.054 7.99172C23.9191 7.99172 24.3677 8.3831 24.3677 9.13322C24.3677 9.32901 24.3677 9.47585 24.2878 9.91617L24.0794 11.3026L24.0474 11.5469L24.0153 11.7427L23.9995 11.8898L23.9993 11.9873ZM26.6907 8.04047H26.5946C26.2584 8.04047 26.066 8.20363 25.7615 8.67639L25.8577 8.07291H24.9443L24.3355 11.9871H25.3288C25.6974 9.58967 25.7936 9.18198 26.2742 9.18198H26.3383C26.4345 8.70902 26.5625 8.3664 26.7228 8.0566L26.6907 8.04047Z" fill="white"/>
</svg>
