<svg width="68" height="19" viewBox="0 0 68 19" fill="none" xmlns="http://www.w3.org/2000/svg">
<g clip-path="url(#clip0_2_5979)">
<path d="M18.3243 0.00415075V0.0124472C18.3159 0.0124472 15.6673 0.00415039 14.961 2.50117C14.3136 4.79079 12.489 11.1094 12.4385 11.2836H11.9341C11.9341 11.2836 10.0674 4.82397 9.41159 2.49287C8.7053 -0.00414607 6.04831 0.00415075 6.04831 0.00415075H0V18.9959H6.05111V7.71634H6.5556L10.087 18.9958H14.2884L17.8198 7.72463H18.3243V18.9958H24.3754V0.00415075H18.3243ZM40.4295 0.00415075C40.4295 0.00415075 38.6553 0.161769 37.8229 1.99521L33.5375 11.2836H33.0331V0.00415075H26.9819V18.9959H32.6967C32.6967 18.9959 34.5549 18.8299 35.3874 17.0049L39.5887 7.71642H40.0932V18.9959H46.1443V0.00415075H40.4295ZM48.8349 8.62895V18.9959H54.886V12.9427H61.4417C64.3005 12.9427 66.7192 11.1426 67.6189 8.63172H48.8349V8.62895Z" fill="#4DB45E"/>
<path d="M61.4444 0.00415039H47.9857C48.6583 3.62109 51.4077 6.52184 54.9616 7.46755C55.7866 7.68802 56.6377 7.79963 57.4924 7.79946H67.8654C67.9579 7.36809 67.9999 6.92841 67.9999 6.47215C68 2.89936 65.0655 0.00415039 61.4444 0.00415039Z" fill="url(#paint0_linear_2_5979)"/>
</g>
<defs>
<linearGradient id="paint0_linear_2_5979" x1="47.9856" y1="3.90179" x2="67.9999" y2="3.90179" gradientUnits="userSpaceOnUse">
<stop offset="0.3" stop-color="#00B4E6"/>
<stop offset="1" stop-color="#088CCB"/>
</linearGradient>
<clipPath id="clip0_2_5979">
<rect width="68" height="19" fill="white"/>
</clipPath>
</defs>
</svg>
