<svg width="21" height="21" viewBox="0 0 21 21" fill="none" xmlns="http://www.w3.org/2000/svg">
<path fill-rule="evenodd" clip-rule="evenodd" d="M14.5323 18.4124C16.3828 18.4124 18.3899 19.0264 20.6121 20.9306C20.8351 21.1211 21.1304 20.884 20.9376 20.6469C18.7536 17.9811 16.7344 17.472 14.7192 17.0426C12.2559 16.5179 10.9882 15.1772 10.1041 13.7044C9.92932 13.411 9.84895 13.4635 9.83288 13.8385C9.81279 14.299 9.84695 14.9091 9.95343 15.5076C9.85498 15.5114 9.75452 15.5114 9.65406 15.5114C6.12998 15.5114 3.27093 12.7484 3.27093 9.33834C3.27093 5.93022 6.12797 3.16524 9.65406 3.16524C13.1781 3.16524 16.0372 5.92827 16.0372 9.33834C16.0372 9.58122 16.0251 9.82022 15.997 10.0553C15.5309 9.97372 14.6127 9.96595 13.9698 10.0184C13.7267 10.0378 13.7608 10.1486 13.9436 10.1797C16.0533 10.5489 17.5039 11.8119 17.8354 14.1066C17.8434 14.1591 17.9138 14.1746 17.9419 14.1299C18.8099 12.729 19.3081 11.089 19.3081 9.3364C19.3081 4.17952 14.9864 0 9.65406 0C4.32173 0 0 4.18146 0 9.3364C0 14.4933 4.32173 18.6747 9.65406 18.6747C11.0685 18.6786 12.4729 18.4124 14.5323 18.4124ZM15.2516 15.0218C15.6816 15.3735 15.8122 15.7912 15.5851 16.0846C15.4586 16.2459 15.2536 16.3353 15.0085 16.3353C14.7674 16.3353 14.5223 16.2498 14.3515 16.106C13.9617 15.7757 13.8472 15.2414 14.1004 14.9363C14.2008 14.8178 14.3615 14.7517 14.5564 14.7517C14.7915 14.7517 15.0386 14.8489 15.2516 15.0218ZM17.2327 14.1299C17.2949 14.5399 17.1623 14.709 17.0277 14.709C16.8811 14.709 16.6982 14.5438 16.4812 14.2154C16.2662 13.8929 16.1879 13.5217 16.2944 13.3352C16.3647 13.2109 16.5114 13.1565 16.6962 13.2245C17.0538 13.3566 17.1945 13.887 17.2327 14.1299Z" fill="#F18B17"/>
</svg>
