<svg width="21" height="21" viewBox="0 0 21 21" fill="none" xmlns="http://www.w3.org/2000/svg">
<path fill-rule="evenodd" clip-rule="evenodd" d="M6.6296 0.73474C10.0717 -0.658226 14.243 -0.0412075 17.1023 2.33649C16.4027 2.78056 15.7498 3.2963 15.1 3.80737C13.1896 2.5484 10.7729 2.05759 8.54463 2.63566C6.20889 3.20905 4.17699 4.88715 3.16571 7.06853C2.41154 8.61108 2.23858 10.3982 2.54399 12.0779C3.02236 14.4509 4.61017 16.5762 6.76672 17.6825C8.70824 18.7233 11.0923 18.8807 13.1663 18.1515C16.3964 17.0514 18.7555 13.7451 18.5873 10.3125C19.3212 9.72513 20.1018 9.19693 20.8498 8.62666C21.2362 10.9654 20.8825 13.4382 19.7263 15.5183C18.3676 18.0331 15.9368 19.9542 13.1632 20.657C10.7168 21.3036 8.0351 21.0309 5.77882 19.8826C3.24362 18.6158 1.2647 16.2786 0.451322 13.5612C-0.26701 11.1976 -0.126771 8.57835 0.864247 6.31439C1.95187 3.79334 4.07259 1.73506 6.6296 0.73474ZM10.5329 10.258C9.18506 9.43377 7.84188 8.60017 6.51897 7.73696C6.53455 8.74507 6.5143 9.75318 6.53144 10.7613C7.86058 11.5855 9.18505 12.4176 10.5111 13.2481C13.6961 10.8984 16.8966 8.56433 20.0707 6.20221C19.7886 5.44807 19.3134 4.78276 18.8631 4.12211C16.077 6.15391 13.2956 8.19506 10.5329 10.258Z" fill="#21A038"/>
</svg>
