<svg width="21" height="21" viewBox="0 0 21 21" fill="none" xmlns="http://www.w3.org/2000/svg">
<path d="M9.27855 3.2991L6.74243 5.52637L8.97039 8.0617L11.5065 5.83443L9.27855 3.2991Z" fill="#0277BD"/>
<path d="M11.1143 7.64676L8.57815 9.87402L10.8061 12.4094L13.3422 10.1821L11.1143 7.64676Z" fill="#0277BD"/>
<path d="M12.849 11.9446L10.3129 14.1719L12.5408 16.7072L15.0769 14.4799L12.849 11.9446Z" fill="#0277BD"/>
<path d="M18.2056 14.1821L16.2356 15.9121L17.9662 17.8814L19.9361 16.1514L18.2056 14.1821Z" fill="#0277BD"/>
<path d="M16.5652 10.3841L14.6473 12.0684L16.3321 13.9856L18.25 12.3013L16.5652 10.3841Z" fill="#0277BD"/>
<path d="M14.9562 6.41335L13.0383 8.09766L14.7232 10.0149L16.641 8.33062L14.9562 6.41335Z" fill="#0277BD"/>
<path d="M13.2466 2.69362L11.3288 4.37793L13.0136 6.2952L14.9315 4.6109L13.2466 2.69362Z" fill="#0277BD"/>
<path d="M16.7603 2.39163L15.5116 3.48828L16.6086 4.73662L17.8573 3.63997L16.7603 2.39163Z" fill="#0277BD"/>
<path d="M18.3443 6.11135L17.0955 7.20801L18.1925 8.45635L19.4413 7.35969L18.3443 6.11135Z" fill="#0277BD"/>
<path d="M19.903 9.83108L18.6543 10.9277L19.7513 12.1761L21 11.0794L19.903 9.83108Z" fill="#0277BD"/>
<path d="M9.27855 3.2991L6.74243 5.52637L8.97039 8.0617L11.5065 5.83443L9.27855 3.2991Z" fill="#0277BD"/>
<path d="M11.1143 7.64725L8.57822 9.87451L10.8062 12.4098L13.3423 10.1826L11.1143 7.64725Z" fill="#0277BD"/>
<path d="M12.8486 11.9451L10.3125 14.1724L12.5405 16.7077L15.0766 14.4804L12.8486 11.9451Z" fill="#0277BD"/>
<path d="M18.2056 14.1821L16.2356 15.9121L17.9662 17.8814L19.9361 16.1514L18.2056 14.1821Z" fill="#0277BD"/>
<path d="M16.5652 10.3841L14.6473 12.0684L16.3321 13.9856L18.25 12.3013L16.5652 10.3841Z" fill="#0277BD"/>
<path d="M14.9561 6.41335L13.0382 8.09766L14.723 10.0149L16.6409 8.33062L14.9561 6.41335Z" fill="#0277BD"/>
<path d="M13.2468 2.69411L11.3289 4.37842L13.0137 6.29569L14.9316 4.61139L13.2468 2.69411Z" fill="#0277BD"/>
<path d="M16.7603 2.39163L15.5116 3.48828L16.6086 4.73662L17.8573 3.63997L16.7603 2.39163Z" fill="#0277BD"/>
<path d="M18.3443 6.11135L17.0955 7.20801L18.1925 8.45635L19.4413 7.35969L18.3443 6.11135Z" fill="#0277BD"/>
<path d="M19.9029 9.83059L18.6541 10.9272L19.7511 12.1756L20.9999 11.0789L19.9029 9.83059Z" fill="#0277BD"/>
<path d="M14.9005 16.3821L12.4206 18.5598L8.45986 14.0521L9.61207 13.0399L6.72472 9.7545L7.84542 8.77012L4.8898 5.40592L9.39833 1.44585L10.8263 3.07072L13.3659 0.84105L14.7461 2.41185L15.8284 1.46107C14.2666 0.53865 12.4501 0 10.5033 0C4.70232 0 0 4.70085 0 10.5C0 16.2991 4.70232 21 10.5033 21C12.9516 21 15.1982 20.1558 16.9843 18.7519L14.9005 16.3821Z" fill="#0277BD"/>
</svg>
