<svg width="46" height="19" viewBox="0 0 46 19" fill="none" xmlns="http://www.w3.org/2000/svg">
<g clip-path="url(#clip0_2_5946)">
<path d="M19.6286 9.5C19.6286 8.33168 19.4004 7.21702 19.0012 6.18256C18.8948 9.58539 15.3217 12.2209 13.2238 13.965H18.4755C19.2099 12.6328 19.6286 11.1143 19.6286 9.5ZM15.8319 2.00662C14.1698 0.752916 12.085 0 9.81374 0C4.39382 0 0 4.25325 0 9.5C0 14.7468 4.39382 19 9.81374 19C12.2966 19 14.557 18.1017 16.2844 16.6305H9.17886L9.1577 14.61C13.4388 11.0076 16.0636 8.57112 16.0636 6.21775C16.0636 5.3431 15.7193 4.2394 14.171 4.2394C12.9447 4.2394 11.7613 4.92712 11.9758 7.80032H9.48086C8.85627 4.46903 10.7283 1.82315 14.2996 1.82315C14.8522 1.82315 15.3652 1.88777 15.8319 2.00662Z" fill="#AFCA0B"/>
<path d="M28.7316 6.5663H31.0532C31.1321 4.85681 30.5373 2.14862 26.708 2.14862C23.8905 2.14862 21.8457 3.78138 21.8457 7.18075C21.8457 7.64173 21.8657 10.0234 21.8657 11.5027C21.8657 15.1899 24.5053 15.9971 26.7274 15.9971C28.0572 15.9971 29.9813 15.7086 30.8747 14.7676V8.89024H26.5095V11.0226H28.4542V13.6149C26.9854 14.0949 24.3069 14.2876 24.3069 11.0226V7.18075C24.3069 4.89547 25.3982 4.10736 26.6079 4.10736C27.8587 4.10736 28.7316 4.72238 28.7316 6.5663ZM45.9986 12.2711C46.0986 7.00824 39.8683 8.75582 39.9277 5.81685C39.9472 4.78008 40.6421 4.10736 41.7729 4.10736C42.9826 4.10736 43.6975 4.79912 43.677 6.60496H45.9591C46.0191 4.97162 45.6228 2.1867 41.853 2.1867C39.5113 2.1867 37.5861 3.30136 37.5467 5.77877C37.4471 10.8299 43.717 9.17872 43.6175 12.2319C43.578 13.4804 42.6457 14.0372 41.5939 14.0372C40.3641 14.0372 39.3718 13.346 39.5703 11.2719H37.2681C37.0107 14.0181 38.261 15.978 41.5744 15.978C44.3719 15.978 45.9591 14.4791 45.9986 12.2711ZM35.5173 15.8044H33.1757V2.35979H35.5173V15.8044ZM28.7316 6.5663H33.1757V2.35979H35.5173L28.7316 6.5663Z" fill="#282828"/>
</g>
<defs>
<clipPath id="clip0_2_5946">
<rect width="46" height="19" fill="white"/>
</clipPath>
</defs>
</svg>
