<svg width="35" height="35" viewBox="0 0 35 35" fill="none" xmlns="http://www.w3.org/2000/svg">
<path d="M34.2276 16.7249C34.2307 16.7249 34.2329 16.7249 34.236 16.7249C34.4492 16.7249 34.6524 16.6355 34.7968 16.4789C34.9435 16.32 35.0161 16.1068 34.997 15.8913C34.2299 7.45369 27.55 0.771119 19.1121 0.0024623C18.8982 -0.0143473 18.6827 0.0551833 18.5238 0.202649C18.3649 0.349351 18.2762 0.556414 18.2785 0.772647C18.4115 11.9862 19.8906 16.5683 34.2276 16.7249ZM34.2276 18.2745C19.8906 18.4311 18.4122 23.0132 18.2793 34.2268C18.277 34.443 18.3656 34.6501 18.5245 34.7968C18.6667 34.9274 18.8523 35 19.0433 35C19.0662 35 19.0899 34.9992 19.1128 34.9969C27.5508 34.2283 34.2307 27.5465 34.997 19.1081C35.0161 18.8926 34.9443 18.6794 34.7968 18.5205C34.6493 18.3616 34.4438 18.2829 34.2276 18.2745ZM15.8367 0.00628275C7.42553 0.797097 0.767032 7.47814 0.00376862 15.8929C-0.0153321 16.1083 0.0564865 16.3215 0.203944 16.4804C0.348345 16.6371 0.55234 16.7257 0.76474 16.7257C0.767796 16.7257 0.770852 16.7257 0.773908 16.7257C15.0635 16.5614 16.5388 11.9816 16.6733 0.775703C16.6756 0.559471 16.5862 0.351643 16.4273 0.204941C16.2668 0.0582396 16.0522 -0.0135831 15.8367 0.00628275ZM0.773144 18.2737C0.535532 18.247 0.349109 18.3601 0.20318 18.519C0.0564866 18.6779 -0.016096 18.8911 0.00300464 19.1065C0.766268 27.5213 7.42553 34.2023 15.8367 34.9931C15.8604 34.9954 15.8848 34.9962 15.9085 34.9962C16.0995 34.9962 16.2844 34.9244 16.4265 34.7937C16.5854 34.647 16.6748 34.4392 16.6725 34.2229C16.5381 23.0178 15.0635 18.438 0.773144 18.2737Z" fill="#282828"/>
</svg>
