<svg width="35" height="35" viewBox="0 0 35 35" fill="none" xmlns="http://www.w3.org/2000/svg">
<path d="M35 17.5C35 7.83501 27.165 1.82035e-07 17.5 1.82035e-07C7.83501 1.82035e-07 0 7.83501 0 17.5C0 27.165 7.83501 35 17.5 35C27.165 35 35 27.165 35 17.5Z" fill="#EF7F1A"/>
<path fill-rule="evenodd" clip-rule="evenodd" d="M17.5 10.9307C18.7555 10.9307 19.7779 11.8586 19.7779 13.0015C19.7779 14.1414 18.7555 15.0708 17.5 15.0708C16.2445 15.0708 15.2221 14.1414 15.2221 13.0015C15.2221 11.8602 16.2445 10.9307 17.5 10.9307ZM17.5 18C20.5332 18 23 15.7575 23 13.0015C23 10.244 20.5332 8 17.5 8C14.4667 8 12 10.2425 12 13.0015C12 15.7575 14.4667 18 17.5 18Z" fill="#FEFEFE"/>
<path fill-rule="evenodd" clip-rule="evenodd" d="M19.8423 22.2461C21.021 21.9942 22.1586 21.5574 23.2065 20.9393C24.0001 20.4707 24.2384 19.488 23.7386 18.7456C23.2388 18.0015 22.1926 17.7764 21.399 18.2451C19.0272 19.6443 15.971 19.6426 13.601 18.2451C12.8074 17.7764 11.7594 17.9998 11.2614 18.7456C10.7616 19.4897 10.9999 20.4707 11.7935 20.9393C12.8397 21.5558 13.9772 21.9942 15.1559 22.2461L11.9189 25.2831C11.2561 25.9046 11.2561 26.9107 11.9189 27.5339C12.2503 27.8446 12.6838 27.9992 13.1173 27.9992C13.5526 27.9992 13.9862 27.8446 14.3176 27.5339L17.4991 24.5507L20.6824 27.5339C21.3435 28.1554 22.4183 28.1554 23.0811 27.5339C23.7457 26.9124 23.7457 25.9046 23.0811 25.2831L19.8423 22.2461Z" fill="#FEFEFE"/>
</svg>
