<svg width="35" height="35" viewBox="0 0 35 35" fill="none" xmlns="http://www.w3.org/2000/svg">
<path d="M17.5 0C12.8587 0 8.40752 1.84374 5.12563 5.12563C1.84374 8.40752 0 12.8587 0 17.5C0 22.1413 1.84374 26.5925 5.12563 29.8744C8.40752 33.1563 12.8587 35 17.5 35C22.1413 35 26.5925 33.1563 29.8744 29.8744C33.1563 26.5925 35 22.1413 35 17.5C35 12.8587 33.1563 8.40752 29.8744 5.12563C26.5925 1.84374 22.1413 0 17.5 0Z" fill="#29B6F6"/>
<path d="M26.2062 9.625L22.9285 26.3603C22.9285 26.3603 22.7876 27.125 21.8391 27.125C21.3351 27.125 21.0752 26.8853 21.0752 26.8853L13.9755 20.9939L10.5018 19.243L6.04362 18.0574C6.04362 18.0574 5.25 17.8281 5.25 17.1719C5.25 16.625 6.06637 16.3643 6.06637 16.3643L24.7179 8.95475C24.717 8.95388 25.2875 8.74913 25.7031 8.75C25.9586 8.75 26.25 8.85938 26.25 9.1875C26.25 9.40625 26.2062 9.625 26.2062 9.625Z" fill="white"/>
<path d="M16.6247 23.1919L13.627 26.1442C13.627 26.1442 13.4966 26.2448 13.3225 26.2492C13.2621 26.2509 13.1974 26.2413 13.1309 26.2116L13.9744 20.9922L16.6247 23.1919Z" fill="#B0BEC5"/>
<path d="M22.6599 12.4214C22.512 12.2289 22.239 12.1939 22.0465 12.34L10.5 19.2499C10.5 19.2499 12.3428 24.4054 12.6236 25.2979C12.9054 26.1913 13.1311 26.2123 13.1311 26.2123L13.9746 20.9929L22.5776 13.0339C22.7701 12.8878 22.806 12.6139 22.6599 12.4214Z" fill="#CFD8DC"/>
</svg>
