<svg width="35" height="35" viewBox="0 0 35 35" fill="none" xmlns="http://www.w3.org/2000/svg">
<path d="M17.5 0C12.8587 0 8.40752 1.84374 5.12563 5.12563C1.84374 8.40752 0 12.8587 0 17.5C0 22.1413 1.84374 26.5925 5.12563 29.8744C8.40752 33.1563 12.8587 35 17.5 35C22.1413 35 26.5925 33.1563 29.8744 29.8744C33.1563 26.5925 35 22.1413 35 17.5C35 12.8587 33.1563 8.40752 29.8744 5.12563C26.5925 1.84374 22.1413 0 17.5 0Z" fill="#1976D2"/>
<path d="M27.9449 12.2864C27.9851 12.1542 28.0044 12.0317 27.9991 11.9224C27.986 11.6056 27.7681 11.3755 27.2554 11.3755H24.9646C24.3862 11.3755 24.1194 11.7255 23.9636 12.0764C23.9636 12.0764 22.5356 15.0155 20.8898 16.9536C20.356 17.5145 20.0848 17.5005 19.796 17.5005C19.6411 17.5005 19.25 17.3132 19.25 16.7996V12.2627C19.25 11.6555 19.0986 11.3755 18.6095 11.3755H14.5416C14.1855 11.3755 14 11.6555 14 11.9364C14 12.52 14.7857 12.66 14.875 14.2954V17.4655C14.875 18.2355 14.7411 18.3755 14.4524 18.3755C13.6736 18.3755 12.1406 15.7505 11.1142 12.31C10.892 11.6327 10.6697 11.3755 10.0914 11.3755H7.77875C7.11113 11.3755 7 11.7027 7 12.0527C7 12.6836 7.525 16.0944 10.3906 20.0161C12.4688 22.8599 15.2066 24.5005 17.6304 24.5005C19.0986 24.5005 19.2491 24.1269 19.2491 23.5432V20.9427C19.25 20.2419 19.4101 20.1255 19.8774 20.1255C20.2107 20.1255 20.8906 20.3442 22.2031 21.8755C23.7169 23.6412 23.9916 24.5005 24.8596 24.5005H27.1504C27.6824 24.5005 27.9877 24.2774 28 23.8442C28.0026 23.734 27.9869 23.6106 27.951 23.4732C27.7812 22.9692 27.0025 21.7372 26.0312 20.563C25.4931 19.9129 24.962 19.2689 24.7179 18.9189C24.5543 18.6905 24.4921 18.5295 24.5 18.3755C24.5079 18.2136 24.5919 18.0596 24.7179 17.8444C24.6951 17.8444 27.6561 13.6872 27.9449 12.2864Z" fill="white"/>
</svg>
