<svg width="35" height="35" viewBox="0 0 35 35" fill="none" xmlns="http://www.w3.org/2000/svg">
<path fill-rule="evenodd" clip-rule="evenodd" d="M0.87207 34.1305L3.22148 25.5898C1.77207 23.0905 1.00986 20.2543 1.01073 17.3495C1.01509 8.26172 8.44182 0.868164 17.5691 0.868164C21.9985 0.869901 26.1549 2.58673 29.2813 5.70168C32.4069 8.8175 34.1284 12.958 34.1267 17.3626C34.1232 26.4504 26.6947 33.8448 17.5691 33.8448C17.5683 33.8448 17.5691 33.8448 17.5691 33.8448H17.5622C14.7915 33.8439 12.068 33.1518 9.64967 31.8379L0.87207 34.1305Z" fill="white"/>
<path fill-rule="evenodd" clip-rule="evenodd" d="M0.872188 34.5648C0.757072 34.5648 0.645444 34.5197 0.562595 34.4363C0.453584 34.326 0.410852 34.1654 0.45184 34.0169L2.75329 25.6489C1.32655 23.1254 0.573933 20.2597 0.575677 17.3505C0.579165 8.02216 8.20212 0.434082 17.5692 0.434082C22.1128 0.435819 26.3817 2.1978 29.5902 5.39525C32.7986 8.59357 34.5646 12.8435 34.5628 17.3627C34.5593 26.6902 26.9355 34.2791 17.5692 34.2791C14.7881 34.2782 12.0367 33.5948 9.59484 32.3018L0.982943 34.55C0.946316 34.5605 0.909688 34.5648 0.872188 34.5648Z" fill="white"/>
<path fill-rule="evenodd" clip-rule="evenodd" d="M17.5695 0.8684C21.9989 0.870137 26.1553 2.58696 29.2817 5.70192C32.4073 8.81774 34.1288 12.9583 34.127 17.3628C34.1236 26.4506 26.6951 33.845 17.5695 33.845H17.5625C14.7919 33.8442 12.0684 33.152 9.65005 31.8382L0.87245 34.1307L3.22186 25.59C1.77245 23.0908 1.01024 20.2546 1.01111 17.3498C1.01547 8.26196 8.4422 0.8684 17.5695 0.8684ZM17.5695 0C7.96255 0 0.143382 7.7826 0.139021 17.3498C0.138149 20.2737 0.879427 23.155 2.28524 25.7055L0.0308821 33.9023C-0.0510945 34.2019 0.0326262 34.5215 0.252393 34.7421C0.418091 34.9088 0.642218 35 0.87245 35C0.946578 35 1.02071 34.9904 1.09396 34.9713L9.54191 32.7656C12.0082 34.0404 14.7727 34.7134 17.5625 34.7143C27.1765 34.7143 34.9956 26.9308 35 17.3637C35.0017 12.7273 33.1904 8.3679 29.9 5.08882C26.6079 1.80888 22.2291 0.0017368 17.5695 0Z" fill="#CFD8DC"/>
<path fill-rule="evenodd" clip-rule="evenodd" d="M27.3043 7.66956C24.7054 5.07999 21.2511 3.65321 17.5743 3.65234C9.98366 3.65234 3.81013 9.79714 3.80664 17.3505C3.80577 19.9392 4.53309 22.4593 5.911 24.6416L6.2389 25.16L4.84792 30.215L10.0569 28.8551L10.5601 29.152C12.6723 30.4008 15.095 31.0608 17.5648 31.0617H17.57C25.1554 31.0617 31.329 24.916 31.3316 17.3618C31.3325 13.7015 29.9031 10.2591 27.3043 7.66956Z" fill="#40C351"/>
<path fill-rule="evenodd" clip-rule="evenodd" d="M13.4311 10.4599C13.1215 9.7739 12.7954 9.76001 12.4997 9.74785C12.2582 9.73743 11.9826 9.7383 11.707 9.7383C11.4314 9.7383 10.9832 9.84164 10.6038 10.2541C10.2245 10.6666 9.15527 11.6627 9.15527 13.6895C9.15527 15.7164 10.6378 17.6755 10.8445 17.9499C11.0512 18.2243 13.7067 22.5168 17.9119 24.1685C21.4064 25.5406 22.118 25.2679 22.8768 25.1993C23.6355 25.1307 25.3247 24.2032 25.6692 23.2411C26.0137 22.2789 26.0137 21.4548 25.9108 21.2828C25.807 21.1109 25.5314 21.0084 25.118 20.8017C24.7047 20.595 22.6701 19.599 22.2907 19.4618C21.9114 19.3246 21.6358 19.256 21.3593 19.6685C21.0837 20.0801 20.291 21.0084 20.0494 21.2828C19.8079 21.5581 19.5663 21.5928 19.1529 21.3862C18.7396 21.1795 17.407 20.7453 15.8259 19.3419C14.5963 18.2504 13.766 16.9017 13.5245 16.4892C13.2829 16.0776 13.4983 15.8544 13.7058 15.6486C13.8916 15.4637 14.1192 15.1675 14.3268 14.927C14.5335 14.6864 14.6024 14.5145 14.7401 14.2401C14.8779 13.9648 14.809 13.7243 14.7053 13.5184C14.6032 13.3118 13.7992 11.2745 13.4311 10.4599Z" fill="white"/>
</svg>
