<svg width="79" height="19" viewBox="0 0 79 19" fill="none" xmlns="http://www.w3.org/2000/svg">
<path fill-rule="evenodd" clip-rule="evenodd" d="M6.94696 4.27357H5.85612C3.84666 4.27357 2.78452 5.28422 2.78452 6.81461C2.78452 8.51826 3.50218 9.32677 5.02363 10.3374L6.258 11.1748L2.6697 16.5456H0L3.21512 11.7523C1.37791 10.424 0.315773 9.15352 0.315773 6.95899C0.315773 4.21583 2.21039 2.3678 5.7987 2.3678H9.3583V16.5745H6.91825L6.94696 4.27357ZM19.4917 6.29485V16.5745H17.0803V12.2721H13.8365V16.5745H11.4252V6.29485H13.8365V10.3663H17.0803V6.29485H19.4917ZM30.4001 18.9134H28.161V16.5745H22.7355V18.9134H20.4964V14.6398H21.2428C22.104 12.9362 22.2475 9.67327 22.2475 7.16111V6.29485H29.2806V14.6398H30.3714V18.9134H30.4001ZM26.9266 8.20063H24.3718V8.51826C24.3718 10.3085 24.1995 13.0806 23.5106 14.6398H26.9266V8.20063ZM35.8256 16.7477C32.754 16.7477 31.003 15.0152 31.003 11.4347C31.003 8.31613 32.4096 6.06385 35.3376 6.06385C37.749 6.06385 39.3278 7.421 39.3278 10.9727V12.2721H33.5004C33.5865 13.9757 34.2755 14.8131 36.0266 14.8131C37.2035 14.8131 38.4666 14.3511 39.213 13.8602V15.8526C38.524 16.3435 37.3758 16.7477 35.8256 16.7477ZM33.5004 10.4818H36.8591V10.2797C36.8591 8.98027 36.4859 7.9985 35.2802 7.9985C34.1607 7.9985 33.5578 8.86476 33.5004 10.4818ZM43.3754 11.5213V16.5745H40.9641V6.29485H43.3754V11.0304L46.7915 6.29485H49.2315L45.8155 11.0304L49.6908 16.5745H46.935L43.3754 11.5213ZM49.5473 11.4347C49.5473 14.8708 51.0975 16.7766 54.3413 16.7766C55.4608 16.7766 56.2646 16.5745 56.8387 16.1414V14.149C56.2359 14.5821 55.4895 14.842 54.4848 14.842C52.7624 14.842 52.0448 13.4848 52.0448 11.3769C52.0448 9.15352 52.906 7.9985 54.5135 7.9985C55.4608 7.9985 56.3507 8.31613 56.8387 8.63376V6.55473C56.322 6.26597 55.4321 6.06385 54.2265 6.06385C51.1549 6.06385 49.5473 8.28726 49.5473 11.4347Z" fill="black"/>
<path fill-rule="evenodd" clip-rule="evenodd" d="M71.4502 0C67.2878 0 63.9004 3.40729 63.9004 7.59422C63.9004 9.6155 64.7042 11.5213 66.1108 12.965C67.4887 14.3511 70.6751 16.3146 70.8761 18.4225C70.9048 18.7401 71.1344 19 71.4502 19C71.766 19 71.9956 18.7401 72.0243 18.4225C72.2253 16.3435 75.4117 14.3511 76.7896 12.965C78.1962 11.5502 79 9.6155 79 7.59422C79 3.40729 75.6126 0 71.4502 0Z" fill="#FF4433"/>
<path opacity="0.251" fill-rule="evenodd" clip-rule="evenodd" d="M71.4501 10.2508C72.9141 10.2508 74.0911 9.06692 74.0911 7.59427C74.0911 6.12163 72.9141 4.93774 71.4501 4.93774C69.9861 4.93774 68.8091 6.12163 68.8091 7.59427C68.8091 9.06692 69.9861 10.2508 71.4501 10.2508Z" fill="black"/>
</svg>
