<svg width="35" height="35" viewBox="0 0 35 35" fill="none" xmlns="http://www.w3.org/2000/svg">
<path d="M34.2145 26.58C33.8653 28.4 32.3815 29.7867 30.5486 30.0467C27.6683 30.48 22.8678 31 17.4564 31C12.1322 31 7.33167 30.48 4.36409 30.0467C2.53117 29.7867 1.04738 28.4 0.698255 26.58C0.349127 24.5867 0 21.64 0 18C0 14.36 0.349127 11.4133 0.698255 9.42C1.04738 7.6 2.53117 6.21333 4.36409 5.95333C7.24439 5.52 12.0449 5 17.4564 5C22.8678 5 27.581 5.52 30.5486 5.95333C32.3815 6.21333 33.8653 7.6 34.2145 9.42C34.5636 11.4133 35 14.36 35 18C34.9127 21.64 34.5636 24.5867 34.2145 26.58Z" fill="#FF3D00"/>
<path d="M14 23V11L24 17L14 23Z" fill="white"/>
</svg>
