<svg width="179" height="34" viewBox="0 0 179 34" fill="none" xmlns="http://www.w3.org/2000/svg">
<path d="M64.5 8.2L60.1 16.8L55.6 8.2H48V22.8H52.4V11.5L58.3 22.8H61.8L67.7 11.5V22.8H72.1V8.2H64.5Z" fill="#AE0F0A"/>
<path d="M84.8 8C76.7 8 75.2 9.8 75.2 15.5C75.2 20.9 76.7 23 84.8 23C92.7 23 94.5 21.2 94.5 15.5C94.4 9.6 92.4 8 84.8 8ZM84.8 19.6C80.4 19.6 79.6 18.5 79.6 15.5C79.6 12.4 80.4 11.4 84.8 11.4C88.9 11.4 90.1 12.2 90.1 15.5C90.1 18.6 89.1 19.6 84.8 19.6Z" fill="#AE0F0A"/>
<path d="M170.1 19.6C166.1 19.6 165.3 18.4 165.3 15.5C165.3 12.5 166.1 11.4 170.1 11.4C173.3 11.4 174.2 12 174.2 13H178.6C178.6 9 176 7.9 170.1 7.9C162.6 7.9 161 9.7 161 15.4C161 20.8 162.7 22.9 170.1 22.9C176 22.9 178.6 21.8 178.6 17.8H174.2C174.2 19 173.3 19.6 170.1 19.6Z" fill="#AE0F0A"/>
<path d="M153.5 8.2V12.5V13.5H145.5C144.8 13.5 144.4 13 144.4 12.3V8.2H140V14.2C140 15.7 141.1 17 142.7 17H153.5C153.5 17 153.5 17 153.5 18.2C153.5 19.3 152.9 19.4 152.2 19.4H140V22.9H155.2C156.6 22.9 157.9 21.7 157.9 20.1V8.2H153.5Z" fill="#AE0F0A"/>
<path d="M130.3 8.2L123.1 18.2V8.2H118.7V22.8H124.7L132.2 13.1V22.8H136.6V8.2H130.3Z" fill="#AE0F0A"/>
<path d="M110.9 13.4H101.9V11.7H114.7V8.2H97.5V22.8H110.9C114.1 22.8 115.4 21.5 115.4 18.1C115.3 14.8 114 13.4 110.9 13.4ZM109.8 19.3H101.9V17H109.8C110.4 17 111 17.5 111 18.2C111 18.8 110.4 19.3 109.8 19.3Z" fill="#AE0F0A"/>
<path d="M49.8 32.4C48.7 32.4 48 31.6 48 30.4C48 29.3 48.6 28.4 49.8 28.4C50.6 28.4 51.3 28.8 51.4 29.6H50.9C50.8 29.1 50.4 28.8 49.8 28.8C48.9 28.8 48.5 29.6 48.5 30.4C48.5 31.4 49 32 49.8 32C50.4 32 50.8 31.6 50.9 30.9H51.4C51.4 31.9 50.7 32.4 49.8 32.4Z" fill="#AE0F0A"/>
<path d="M54.7 29H52.6V30.2H54.6V30.6H52.6V31.9H54.8V32.3H52.1V28.5H54.7V29Z" fill="#AE0F0A"/>
<path d="M58.2 29H56.9V32.3H56.4V29H55.1V28.5H58.2V29Z" fill="#AE0F0A"/>
<path d="M60.4 32.3H58.7V28.5H59.2V30.1H60.4C61.2 30.1 61.6 30.5 61.6 31.2C61.6 31.9 61.2 32.3 60.4 32.3ZM60.2 30.5H59.2V31.9H60.2C60.8 31.9 61 31.7 61 31.2C61.1 30.7 60.8 30.5 60.2 30.5Z" fill="#AE0F0A"/>
<path d="M65.5 32.4C64.4 32.4 63.7 31.6 63.7 30.4C63.7 29.3 64.3 28.4 65.5 28.4C66.3 28.4 67 28.8 67.1 29.6H66.6C66.5 29.1 66.1 28.8 65.5 28.8C64.6 28.8 64.2 29.6 64.2 30.4C64.2 31.4 64.7 32 65.5 32C66.1 32 66.5 31.6 66.6 30.9H67.1C67.1 31.9 66.5 32.4 65.5 32.4Z" fill="#AE0F0A"/>
<path d="M69.3 30L71 32.3H70.3L69 30.4L68.3 31V32.3H67.8V28.5H68.3V30.4L70.3 28.5H70.9L69.3 30Z" fill="#AE0F0A"/>
<path d="M74.5 32.3H74V28.9H72.6L72.5 31.1C72.5 31.9 72.2 32.4 71.6 32.4C71.5 32.4 71.3 32.4 71.2 32.3V31.9C71.3 31.9 71.4 32 71.5 32C71.8 32 72 31.8 72 30.9L72.1 28.6H74.5V32.3Z" fill="#AE0F0A"/>
<path d="M78.6 32.3H78L77.6 31.1H76L75.6 32.3H75.1L76.6 28.5H77.2L78.6 32.3ZM76.8 29L76.1 30.8H77.4L76.8 29Z" fill="#AE0F0A"/>
<path d="M82.2 33.3V32.4H79.4V33.3H78.9V31.9H79.3C79.6 31.4 79.8 30.3 79.8 29.3V28.6H82.2V32H82.6V33.4H82.2V33.3ZM81.7 29H80.3V29.5C80.3 30.4 80.1 31.4 79.9 31.9H81.8V29H81.7Z" fill="#AE0F0A"/>
<path d="M86.6 30.4C86.6 31.5 86 32.4 84.8 32.4C83.6 32.4 83 31.5 83 30.4C83 29.2 83.7 28.4 84.8 28.4C86 28.4 86.6 29.3 86.6 30.4ZM83.4 30.4C83.4 31.4 83.9 32 84.7 32C85.5 32 86 31.4 86 30.4C86 29.5 85.5 28.8 84.7 28.8C83.9 28.9 83.4 29.6 83.4 30.4Z" fill="#AE0F0A"/>
<path d="M88.9 28.5C89.5 28.5 90.1 28.8 90.1 29.5C90.1 29.9 89.9 30.2 89.5 30.3C90 30.4 90.2 30.8 90.2 31.3C90.2 32.2 89.5 32.4 88.8 32.4H87.2V28.6H88.9V28.5ZM87.7 30.2H88.6C89 30.2 89.5 30.2 89.5 29.6C89.5 29 89.1 29 88.6 29H87.6V30.2H87.7ZM87.7 31.9H88.7C89.2 31.9 89.7 31.9 89.7 31.2C89.7 30.5 89.1 30.5 88.6 30.5H87.7V31.9Z" fill="#AE0F0A"/>
<path d="M92.8 28.5H93.3V31.7L95.2 28.5H95.8V32.3H95.3V29.1L93.4 32.3H92.8V28.5Z" fill="#AE0F0A"/>
<path d="M99.7 32.3H99.2V30.5H97.1V32.3H96.6V28.5H97.1V30.1H99.2V28.5H99.7V32.3Z" fill="#AE0F0A"/>
<path d="M103.5 33.3V32.4H100.7V33.3H100.2V31.9H100.6C100.9 31.4 101.1 30.3 101.1 29.3V28.6H103.5V32H103.9V33.4H103.5V33.3ZM103 29H101.6V29.5C101.6 30.4 101.4 31.4 101.2 31.9H103.1V29H103Z" fill="#AE0F0A"/>
<path d="M104.5 28.5H105V31.7L106.9 28.5H107.5V32.3H107V29.1L105.1 32.3H104.5V28.5Z" fill="#AE0F0A"/>
<path d="M110 28.5C110.6 28.5 111.2 28.8 111.2 29.5C111.2 29.9 111 30.2 110.6 30.3C111.1 30.4 111.3 30.8 111.3 31.3C111.3 32.2 110.6 32.4 109.9 32.4H108.3V28.6H110V28.5ZM108.9 30.2H109.8C110.2 30.2 110.7 30.2 110.7 29.6C110.7 29 110.3 29 109.8 29H108.8V30.2H108.9ZM108.9 31.9H109.9C110.4 31.9 110.9 31.9 110.9 31.2C110.9 30.5 110.3 30.5 109.8 30.5H108.9V31.9Z" fill="#AE0F0A"/>
<path d="M112.1 28.5H112.6V31.7L114.5 28.5H115.1V32.3H114.6V29.1L112.7 32.3H112.1V28.5Z" fill="#AE0F0A"/>
<path d="M118.9 33.3V32.4H116.1V33.3H115.6V31.9H116C116.3 31.4 116.5 30.3 116.5 29.3V28.6H118.9V32H119.3V33.4H118.9V33.3ZM118.5 29H117.1V29.5C117.1 30.4 116.9 31.4 116.7 31.9H118.6V29H118.5Z" fill="#AE0F0A"/>
<path d="M119.6 28.5H120.2L121.3 30.8L122.4 28.5H122.9L121.4 31.5C121.1 32.2 120.8 32.4 120.4 32.4C120.2 32.4 120 32.4 119.9 32.3V31.9C120 31.9 120.1 32 120.3 32C120.6 32 120.7 31.7 120.9 31.5L121 31.4L119.6 28.5Z" fill="#AE0F0A"/>
<path d="M126 32.3H125.4L125 31.1H123.4L123 32.3H122.5L124 28.5H124.6L126 32.3ZM124.2 29L123.5 30.8H124.8L124.2 29Z" fill="#AE0F0A"/>
<path d="M129.5 32.3H129V28.9H127.6L127.5 31.1C127.5 31.9 127.2 32.4 126.6 32.4C126.5 32.4 126.3 32.4 126.2 32.3V31.9C126.3 31.9 126.4 32 126.5 32C126.8 32 127 31.8 127 30.9L127.1 28.6H129.5V32.3Z" fill="#AE0F0A"/>
<path d="M132 32.3H130.3V28.5H130.8V30.1H132C132.7 30.1 133.2 30.5 133.2 31.2C133.2 31.9 132.8 32.3 132 32.3ZM131.9 30.5H130.9V31.9H131.9C132.5 31.9 132.7 31.7 132.7 31.2C132.7 30.7 132.4 30.5 131.9 30.5Z" fill="#AE0F0A"/>
<path d="M136.9 32.3H136.4V30.5H134.3V32.3H133.8V28.5H134.3V30.1H136.4V28.5H136.9V32.3Z" fill="#AE0F0A"/>
<path d="M141.2 30.4C141.2 31.5 140.6 32.4 139.4 32.4C138.2 32.4 137.6 31.5 137.6 30.4C137.6 29.2 138.3 28.4 139.4 28.4C140.5 28.4 141.2 29.3 141.2 30.4ZM138 30.4C138 31.4 138.5 32 139.3 32C140.1 32 140.6 31.4 140.6 30.4C140.6 29.5 140.1 28.8 139.3 28.8C138.4 28.9 138 29.6 138 30.4Z" fill="#AE0F0A"/>
<path d="M141.8 32.3V28.5H144.3V29H142.3V32.3H141.8Z" fill="#AE0F0A"/>
<path d="M148.2 30.4C148.2 31.5 147.6 32.4 146.4 32.4C145.2 32.4 144.6 31.5 144.6 30.4C144.6 29.2 145.3 28.4 146.4 28.4C147.5 28.4 148.2 29.3 148.2 30.4ZM145 30.4C145 31.4 145.5 32 146.3 32C147.1 32 147.6 31.4 147.6 30.4C147.6 29.5 147.1 28.8 146.3 28.8C145.5 28.9 145 29.6 145 30.4Z" fill="#AE0F0A"/>
<path d="M152.1 30.4L153.5 32.3H152.9L151.8 30.8L150.8 32.3H150.2L151.5 30.4L150.3 28.5H150.9L151.8 30L152.8 28.5H153.4L152.1 30.4Z" fill="#AE0F0A"/>
<path d="M155.6 28.5C156.3 28.5 156.9 28.8 156.9 29.6C156.9 30.5 156.3 30.8 155.6 30.8H154.6V32.4H154.1V28.6H155.6V28.5ZM154.5 30.3H155.5C156 30.3 156.4 30.2 156.4 29.6C156.4 29 156 28.9 155.5 28.9H154.6V30.3H154.5Z" fill="#AE0F0A"/>
<path d="M160.3 32.3H159.8L159.4 31.1H157.8L157.4 32.3H156.8L158.3 28.5H158.9L160.3 32.3ZM158.5 29L157.8 30.8H159.1L158.5 29Z" fill="#AE0F0A"/>
<path d="M163.9 32.3H163.3V30.5H161.3V32.3H160.8V28.5H161.3V30.1H163.3V28.5H163.9V32.3Z" fill="#AE0F0A"/>
<path d="M167.3 29H165.2V30.2H167.2V30.6H165.2V31.9H167.4V32.3H164.7V28.5H167.3V29Z" fill="#AE0F0A"/>
<path d="M171 32.3H170.5V30.5H168.5V32.3H168V28.5H168.5V30.1H170.5V28.5H171V32.3Z" fill="#AE0F0A"/>
<path d="M171.9 28.5H172.4V31.7L174.2 28.5H174.9V32.3H174.4V29.1L172.5 32.3H171.9V28.5Z" fill="#AE0F0A"/>
<path d="M176 32.3H175.4L176.7 30.7C176.1 30.6 175.8 30.3 175.8 29.6C175.8 28.9 176.3 28.5 177 28.5H178.6V32.3H178.1V30.7H177.3L176 32.3ZM178.1 28.9H177.1C176.5 28.9 176.2 29.1 176.2 29.6C176.2 30.1 176.5 30.3 177.1 30.3H178.1V28.9Z" fill="#AE0F0A"/>
<path d="M0 18.2V27.7L8 32.3V22.8L0 18.2Z" fill="#AE0F0A"/>
<path d="M0 8.2V17.7L8 22.3V12.8L0 8.2Z" fill="#AE0F0A"/>
<path d="M8.5 13.1V22.6L16.5 27.2V17.7L8.5 13.1Z" fill="#AE0F0A"/>
<path d="M33.5 18.2V27.7L25.5 32.3V22.8L33.5 18.2Z" fill="#AE0F0A"/>
<path d="M33.5 8.2V17.7L25.5 22.3V12.8L33.5 8.2Z" fill="#AE0F0A"/>
<path d="M25 13.1V22.6L17 27.2V17.7L25 13.1Z" fill="#AE0F0A"/>
<path d="M8.5 4.8L16.8 9.6L25 4.8L16.8 0L8.5 4.8Z" fill="#AE0F0A"/>
</svg>
