<svg width="153" height="22" viewBox="0 0 153 22" fill="none" xmlns="http://www.w3.org/2000/svg">
<path d="M0 12.3799V18.8522L5.4938 22.0003V15.528L0 12.3799Z" fill="#AE0F0A"/>
<path d="M0 5.56738V12.0397L5.4938 15.1878V8.7155L0 5.56738Z" fill="#AE0F0A"/>
<path d="M5.84058 8.91211V15.3844L11.3344 18.5325V12.0561L5.84058 8.91211Z" fill="#AE0F0A"/>
<path d="M23.0113 12.3799V18.8522L17.5175 22.0003V15.528L23.0113 12.3799Z" fill="#AE0F0A"/>
<path d="M23.0113 5.56738V12.0397L17.5175 15.1878V8.7155L23.0113 5.56738Z" fill="#AE0F0A"/>
<path d="M17.1748 8.91211V15.3844L11.6769 18.5325V12.0561L17.1748 8.91211Z" fill="#AE0F0A"/>
<path d="M5.84058 3.24637L11.5077 6.49274L17.1749 3.24637L11.5077 0L5.84058 3.24637Z" fill="#AE0F0A"/>
<path d="M63.9655 5.37402C56.2735 5.37402 54.8184 7.11151 54.8184 12.4428C54.8184 17.5307 56.2735 19.4946 63.9655 19.4946C71.4692 19.4946 73.1297 17.7911 73.1297 12.4428C73.1297 6.84551 71.201 5.37402 63.9655 5.37402ZM63.9712 16.28C59.7828 16.28 58.9953 15.2103 58.9953 12.4428C58.9953 9.53945 59.7885 8.5943 63.9712 8.5943C67.9085 8.5943 68.9584 9.3923 68.9584 12.4428C68.9584 15.3518 68.0569 16.28 63.9712 16.28Z" fill="#AE0F0A"/>
<path d="M144.954 16.2856H144.943H144.926C141.16 16.2799 140.418 15.1707 140.418 12.4484C140.418 9.59604 141.165 8.59996 144.926 8.5943H144.937H144.954C148.001 8.5943 148.834 9.1263 148.834 10.1394H153C153 6.40407 150.495 5.37402 144.926 5.37402V5.37969C137.844 5.37969 136.252 7.1115 136.252 12.4484C136.252 17.5364 137.844 19.5002 144.926 19.5002C150.495 19.5002 153 18.4759 153 14.7406H148.834C148.829 15.7593 147.996 16.2799 144.954 16.2856Z" fill="#AE0F0A"/>
<path d="M129.165 5.56641V9.5677L129.159 10.4902H121.61C120.994 10.4902 120.52 9.97518 120.52 9.40357V5.56641H116.354V11.192C116.354 12.5616 117.404 13.818 118.894 13.818H129.171C129.171 13.818 129.171 13.835 129.171 14.9046C129.171 15.9799 128.646 15.9969 127.91 15.9969H116.354V19.3191H130.763C132.104 19.3191 133.342 18.1702 133.342 16.6931V5.56641H129.165Z" fill="#AE0F0A"/>
<path d="M107.185 5.56641L100.354 15.0065V5.56641H96.1829V19.3021H101.838L108.988 10.1506V19.3021H113.165V5.56641H107.185Z" fill="#AE0F0A"/>
<path d="M88.7305 10.4904H80.2111V8.89441H92.3654V5.57227H76.0455V19.308H88.7362C91.7548 19.308 92.976 18.0459 92.976 14.9048C92.9703 11.7638 91.7035 10.4904 88.7305 10.4904ZM87.7034 15.9802H80.2054V13.8125H80.2111H80.2054H87.7034C88.314 13.8125 88.8047 14.288 88.8047 14.8992C88.8047 15.5048 88.314 15.9802 87.7034 15.9802Z" fill="#AE0F0A"/>
<path d="M44.7411 5.57812L40.4899 13.6543L36.2331 5.57812H29.0603V19.3138H33.2316V8.62861L38.8579 19.3138H42.1219L47.7483 8.62861V19.3138H51.9138V5.57812H44.7411Z" fill="#AE0F0A"/>
</svg>
