<svg width="25" height="25" viewBox="0 0 25 25" fill="none" xmlns="http://www.w3.org/2000/svg">
<path d="M24.1071 13.4375H0.892857C0.656057 13.4375 0.428955 13.3387 0.261512 13.1629C0.0940686 12.9871 0 12.7486 0 12.5C0 12.2514 0.0940686 12.0129 0.261512 11.8371C0.428955 11.6613 0.656057 11.5625 0.892857 11.5625H24.1071C24.3439 11.5625 24.571 11.6613 24.7385 11.8371C24.9059 12.0129 25 12.2514 25 12.5C25 12.7486 24.9059 12.9871 24.7385 13.1629C24.571 13.3387 24.3439 13.4375 24.1071 13.4375ZM25 19.0625C25 18.8139 24.9059 18.5754 24.7385 18.3996C24.571 18.2238 24.3439 18.125 24.1071 18.125H0.892857C0.656057 18.125 0.428955 18.2238 0.261512 18.3996C0.0940686 18.5754 0 18.8139 0 19.0625C0 19.3111 0.0940686 19.5496 0.261512 19.7254C0.428955 19.9012 0.656057 20 0.892857 20H24.1071C24.3439 20 24.571 19.9012 24.7385 19.7254C24.9059 19.5496 25 19.3111 25 19.0625ZM25 5.9375C25 5.68886 24.9059 5.4504 24.7385 5.27459C24.571 5.09877 24.3439 5 24.1071 5H0.892857C0.656057 5 0.428955 5.09877 0.261512 5.27459C0.0940686 5.4504 0 5.68886 0 5.9375C0 6.18614 0.0940686 6.4246 0.261512 6.60041C0.428955 6.77623 0.656057 6.875 0.892857 6.875H24.1071C24.3439 6.875 24.571 6.77623 24.7385 6.60041C24.9059 6.4246 25 6.18614 25 5.9375Z" fill="black"/>
</svg>
