<svg width="25" height="25" viewBox="0 0 25 25" fill="none" xmlns="http://www.w3.org/2000/svg">
<path fill-rule="evenodd" clip-rule="evenodd" d="M12.5 23.4375C12.3698 23.4375 12.2396 23.3906 12.1406 23.2969C12.1343 23.2908 12.1255 23.2822 12.1141 23.2712C11.5017 22.6804 3.64583 15.1003 3.64583 10.4167C3.64583 5.53646 7.61979 1.5625 12.5 1.5625C17.3802 1.5625 21.3542 5.53646 21.3542 10.4167C21.3542 15.1003 13.4983 22.6804 12.8859 23.2712C12.8745 23.2822 12.8657 23.2908 12.8594 23.2969C12.7604 23.3906 12.6302 23.4375 12.5 23.4375ZM20.3125 10.4167C20.3125 6.10937 16.8073 2.60417 12.5 2.60417C8.19271 2.60417 4.6875 6.10937 4.6875 10.4167C4.6875 14.2188 10.9219 20.6302 12.5 22.1875C14.0781 20.6302 20.3125 14.2135 20.3125 10.4167ZM12.5 6.77083C14.5104 6.77083 16.1458 8.40625 16.1458 10.4167C16.1458 12.4271 14.5104 14.0625 12.5 14.0625C10.4896 14.0625 8.85417 12.4271 8.85417 10.4167C8.85417 8.40625 10.4896 6.77083 12.5 6.77083ZM12.5 7.8125C11.0625 7.8125 9.89583 8.97917 9.89583 10.4167C9.89583 11.8542 11.0625 13.0208 12.5 13.0208C13.9375 13.0208 15.1042 11.8542 15.1042 10.4167C15.1042 8.97917 13.9375 7.8125 12.5 7.8125Z" fill="black"/>
</svg>
