<svg width="25" height="25" viewBox="0 0 25 25" fill="none" xmlns="http://www.w3.org/2000/svg">
<g clip-path="url(#clip0_3_2004)">
<path fill-rule="evenodd" clip-rule="evenodd" d="M24.1171 14.6134H24.9481V19.5989H24.1171V22.9226C24.1157 24.0695 23.1866 24.9985 22.0398 24.9999H2.09761C0.950827 24.9985 0.0217483 24.0695 0.0202942 22.9226V11.2897C0.0217483 10.1431 0.950827 9.21381 2.09761 9.21236H5.50975L10.4679 0.621107C10.8136 0.0281896 11.5721 -0.175699 12.1685 0.164098L21.5259 5.56511C21.6679 5.64687 21.7923 5.75579 21.8921 5.88566C21.9919 6.01553 22.0651 6.16379 22.1076 6.32198C22.1932 6.64152 22.1484 6.98198 21.9831 7.26851L20.8612 9.21236H22.0398C23.1866 9.21381 24.1157 10.1431 24.1171 11.2897V14.6134ZM18.9418 10.8743L21.2647 6.85274C21.3182 6.75699 21.3322 6.64416 21.3038 6.53822C21.2754 6.43229 21.2067 6.34163 21.1125 6.28552L15.836 3.23935L11.4293 10.8743H18.9418ZM13.679 1.99416L8.55068 10.8743H10.4704L15.1165 2.82508L13.679 1.99416ZM11.4424 0.843654C11.3362 0.872101 11.2456 0.941517 11.1905 1.03667L5.50934 10.8742H7.59132L12.9591 1.57875L11.7571 0.884925C11.6618 0.830048 11.5487 0.815206 11.4424 0.843654ZM22.0398 24.1691C22.7281 24.1691 23.2862 23.611 23.2862 22.9227V19.599H18.7161C17.5693 19.5976 16.6403 18.6685 16.6388 17.5217V16.6908C16.6403 15.5442 17.5693 14.6149 18.7161 14.6135H23.2862V11.2898C23.2862 10.6015 22.7281 10.0434 22.0398 10.0434H20.3812L19.9011 10.8743H21.6244V11.7052H2.51307V10.8743H4.54884L5.03 10.0434H2.09761C1.40929 10.0434 0.85122 10.6015 0.85122 11.2898V22.9227C0.85122 23.611 1.40929 24.1691 2.09761 24.1691H22.0398ZM18.7161 18.7681H24.1171V15.4444H18.7161C18.0278 15.4444 17.4697 16.0025 17.4697 16.6908V17.5217C17.4697 18.21 18.0278 18.7681 18.7161 18.7681ZM19.1316 18.3525C18.4433 18.3525 17.8852 17.7945 17.8852 17.1061C17.8852 16.4179 18.4433 15.8598 19.1316 15.8598C19.8199 15.8598 20.378 16.4178 20.378 17.1061C20.378 17.7945 19.8199 18.3525 19.1316 18.3525ZM19.4254 16.8124C19.3475 16.7345 19.2418 16.6907 19.1316 16.6907C19.0214 16.6907 18.9157 16.7345 18.8378 16.8124C18.7599 16.8903 18.7161 16.996 18.7161 17.1062C18.7161 17.2164 18.7599 17.3221 18.8378 17.4C18.9157 17.4779 19.0214 17.5217 19.1316 17.5217C19.2418 17.5217 19.3475 17.4779 19.4254 17.4C19.5033 17.322 19.5471 17.2164 19.5471 17.1062C19.5471 16.996 19.5033 16.8903 19.4254 16.8124Z" fill="#AE0F0A"/>
</g>
<defs>
<clipPath id="clip0_3_2004">
<rect width="25" height="25" fill="white"/>
</clipPath>
</defs>
</svg>
