<svg width="25" height="25" viewBox="0 0 25 25" fill="none" xmlns="http://www.w3.org/2000/svg">
<path d="M12.5 0C8.86528 0 5.9082 2.95708 5.9082 6.5918C5.9082 10.2265 8.86528 13.1836 12.5 13.1836C16.1347 13.1836 19.0918 10.2265 19.0918 6.5918C19.0918 2.95708 16.1347 0 12.5 0ZM12.5 11.7188C9.673 11.7188 7.37305 9.4188 7.37305 6.5918C7.37305 3.7648 9.673 1.46484 12.5 1.46484C15.327 1.46484 17.627 3.7648 17.627 6.5918C17.627 9.4188 15.327 11.7188 12.5 11.7188ZM20.7015 17.49C18.8968 15.6576 16.5043 14.6484 13.9648 14.6484H11.0352C8.4957 14.6484 6.10322 15.6576 4.29853 17.49C2.50269 19.3134 1.51367 21.7204 1.51367 24.2676C1.51367 24.6721 1.8416 25 2.24609 25H22.7539C23.1584 25 23.4863 24.6721 23.4863 24.2676C23.4863 21.7204 22.4973 19.3134 20.7015 17.49ZM3.01074 23.5352C3.37769 19.3806 6.83647 16.1133 11.0352 16.1133H13.9648C18.1635 16.1133 21.6223 19.3806 21.9893 23.5352H3.01074Z" fill="#595959"/>
</svg>
